G04 ================== begin FILE IDENTIFICATION RECORD ==================*
G04 Layout Name:  C:/Users/Marcelo Franchini/Desktop/Orcad/Pictograma/Pictograma.brd*
G04 Film Name:    Camada_Topo*
G04 File Format:  Gerber RS274X*
G04 File Origin:  Cadence Allegro 17.2-S016*
G04 Origin Date:  Fri Oct 25 15:42:18 2019*
G04 *
G04 Layer:  VIA CLASS/TOP*
G04 Layer:  PIN/TOP*
G04 Layer:  ETCH/TOP*
G04 Layer:  BOARD GEOMETRY/DESIGN_OUTLINE*
G04 *
G04 Offset:    (0.000 0.000)*
G04 Mirror:    No*
G04 Mode:      Positive*
G04 Rotation:  0*
G04 FullContactRelief:  No*
G04 UndefLineWidth:     0.100*
G04 ================== end FILE IDENTIFICATION RECORD ====================*
%FSLAX25Y25*MOIN*%
%IR0*IPPOS*OFA0.00000B0.00000*MIA0B0*SFA1.00000B1.00000*%
%ADD12C,.07874*%
%ADD10R,.031496X.07874*%
%ADD11R,.110236X.03937*%
%ADD13C,.019685*%
%ADD14C,.003937*%
G75*
%LPD*%
G75*
G54D10*
X34913Y41500D03*
Y56500D03*
X36913Y196000D03*
Y211000D03*
X49087Y41500D03*
Y56500D03*
X51087Y196000D03*
Y211000D03*
X54913Y104000D03*
Y150000D03*
X69087Y104000D03*
Y150000D03*
X93913D03*
X108087D03*
X108913Y196000D03*
Y211000D03*
X114913Y41500D03*
Y56500D03*
X129087Y41500D03*
Y56500D03*
X123087Y196000D03*
Y211000D03*
X129913Y105000D03*
Y150000D03*
X134913Y196000D03*
X144087Y105000D03*
Y150000D03*
X149087Y196000D03*
G54D11*
X32000Y71539D03*
Y79020D03*
Y86500D03*
Y120039D03*
Y127520D03*
Y135000D03*
Y165039D03*
Y172520D03*
Y180000D03*
X49323Y71539D03*
Y79020D03*
Y86500D03*
Y127520D03*
Y120039D03*
Y135000D03*
Y165039D03*
Y172520D03*
Y180000D03*
X72000Y41539D03*
Y49020D03*
Y56500D03*
Y71539D03*
Y79020D03*
Y86500D03*
Y120039D03*
Y127520D03*
Y135000D03*
Y165039D03*
Y172520D03*
Y180000D03*
Y196039D03*
Y203520D03*
Y211000D03*
X89323Y41539D03*
Y49020D03*
Y56500D03*
Y71539D03*
Y79020D03*
Y86500D03*
Y127520D03*
Y120039D03*
Y135000D03*
Y165039D03*
Y172520D03*
Y180000D03*
Y203520D03*
Y196039D03*
Y211000D03*
X112000Y71539D03*
Y79020D03*
Y86500D03*
Y120039D03*
Y127520D03*
Y135000D03*
Y165039D03*
Y172520D03*
Y180000D03*
X129323Y71539D03*
Y79020D03*
Y86500D03*
Y127520D03*
Y120039D03*
Y135000D03*
Y165039D03*
Y172520D03*
Y180000D03*
G54D12*
X60000Y247000D03*
Y257000D03*
X70000Y247000D03*
Y257000D03*
X80000Y247000D03*
Y257000D03*
X90000Y247000D03*
Y257000D03*
X100000Y247000D03*
Y257000D03*
G54D13*
G01X90000D02*
Y270531D01*
X88031Y272500D01*
X36969D01*
X35000Y270531D01*
Y234055D01*
X33031Y232087D01*
X6555D01*
X4587Y230118D01*
Y80413D01*
X5980Y79020D01*
X32000D01*
G01Y71539D02*
Y64839D01*
X34913Y61925D01*
Y56500D01*
G01X32000Y71539D02*
Y79020D01*
G01D02*
Y86500D01*
G01Y127520D02*
Y120039D01*
G01Y135000D02*
Y127520D01*
G01X80000Y247000D02*
Y159469D01*
X78031Y157500D01*
X34469D01*
X32500Y155531D01*
Y135500D01*
X32000Y135000D01*
G01Y172520D02*
Y165039D01*
G01Y180000D02*
Y172520D01*
G01Y180000D02*
Y183457D01*
X29606Y185850D01*
Y194606D01*
X31000Y196000D01*
X36913D01*
G01X34913Y41500D02*
Y56500D01*
G01X49323Y71539D02*
X48362Y72500D01*
X41969D01*
X40000Y74469D01*
Y102500D01*
X41500Y104000D01*
X54913D01*
G01X49323Y120039D02*
X49283Y120000D01*
X41969D01*
X40000Y121969D01*
Y148031D01*
X41969Y150000D01*
X54913D01*
G01X36913Y211000D02*
Y196000D01*
G01Y211000D02*
X38413Y212500D01*
X40531D01*
X42500Y214469D01*
Y230531D01*
X44469Y232500D01*
X68031D01*
X70000Y234469D01*
Y247000D01*
G01X49087Y41500D02*
X64961D01*
X65000Y41539D01*
X72000D01*
G01Y49020D02*
X70480Y47500D01*
X59469D01*
X57500Y49469D01*
Y55000D01*
X56000Y56500D01*
X49087D01*
G01X49323Y79020D02*
X72000D01*
G01X49323Y86500D02*
X72000D01*
G01X49323Y135000D02*
X72000D01*
G01X49323Y127520D02*
X72000D01*
G01X49323Y165039D02*
X72000D01*
G01X49323Y172520D02*
X72000D01*
G01X49323Y180000D02*
X72000D01*
G01X51087Y196000D02*
X64961D01*
X65000Y196039D01*
X72000D01*
G01Y203520D02*
X62268D01*
X60394Y205394D01*
Y209606D01*
X59000Y211000D01*
X51087D01*
G01X60000Y257000D02*
X52469D01*
X50500Y255031D01*
Y248969D01*
X52469Y247000D01*
X60000D01*
G01X72000Y71539D02*
X72961Y72500D01*
X78031D01*
X80000Y74469D01*
Y102500D01*
X78500Y104000D01*
X69087D01*
G01X72000Y120039D02*
X72039Y120000D01*
X78031D01*
X80000Y121969D01*
Y148031D01*
X78031Y150000D01*
X69087D01*
G01X89323Y41539D02*
X111811D01*
X111850Y41500D01*
X114913D01*
G01X89323Y56500D02*
X114913D01*
G01X89323Y71539D02*
X112000D01*
G01X89323Y79020D02*
X112000D01*
G01X89323Y120039D02*
X112000D01*
G01X89323Y135000D02*
X112000D01*
G01X89323Y127520D02*
X112000D01*
G01X93913Y150000D02*
X90000D01*
X89323Y150677D01*
Y165039D01*
G01Y172520D02*
X112000D01*
G01X89323Y196039D02*
X105811D01*
X105850Y196000D01*
X108913D01*
G01X89323Y203520D02*
X89949Y202894D01*
X100138D01*
X102106Y204862D01*
Y209606D01*
X103500Y211000D01*
X108913D01*
G01X123087D02*
X122500Y211587D01*
Y230531D01*
X120531Y232500D01*
X101969D01*
X100000Y234469D01*
Y247000D01*
G01X108087Y150000D02*
X111500D01*
X112000Y150500D01*
Y165039D01*
G01X129323Y79020D02*
X127803Y77500D01*
X121969D01*
X120000Y79469D01*
Y103031D01*
X121969Y105000D01*
X129913D01*
G01X129323Y127520D02*
X129303Y127500D01*
X121969D01*
X120000Y129469D01*
Y148031D01*
X121969Y150000D01*
X129913D01*
G01X129323Y165039D02*
X129283Y165000D01*
X121969D01*
X120000Y166969D01*
Y185000D01*
X123087Y188087D01*
Y196000D01*
G01Y211000D02*
Y196000D01*
G01D02*
X134913D01*
G01X129087Y41500D02*
X130587Y40000D01*
X133031D01*
X135000Y41969D01*
Y57500D01*
G01D02*
Y63031D01*
X136969Y65000D01*
G01X129087Y56500D02*
X134000D01*
X135000Y57500D01*
G01X136969Y65000D02*
X152992D01*
X154961Y66969D01*
Y105000D01*
G01X136969Y65000D02*
X131969D01*
X130000Y66969D01*
Y70862D01*
X129323Y71539D01*
G01Y120039D02*
X154921D01*
X154961Y120000D01*
G01Y150000D02*
Y163071D01*
X152992Y165039D01*
X129323D01*
G01Y172520D02*
X136323D01*
X136343Y172500D01*
X147500D01*
X149087Y174087D01*
Y196000D01*
G01X144087Y105000D02*
X154961D01*
G01X144087Y150000D02*
X154961D01*
G01Y105000D02*
Y120000D01*
G01D02*
Y150000D01*
G54D14*
G01X1000Y0D02*
Y276000D01*
X159000D01*
Y0D01*
X1000D01*
M02*
