G04 ================== begin FILE IDENTIFICATION RECORD ==================*
G04 Layout Name:  C:/Users/Marcelo Franchini/Desktop/Orcad/Pictograma/Pictograma.brd*
G04 Film Name:    Camada_Mascara*
G04 File Format:  Gerber RS274X*
G04 File Origin:  Cadence Allegro 17.2-S016*
G04 Origin Date:  Fri Oct 25 15:42:18 2019*
G04 *
G04 Layer:  VIA CLASS/SOLDERMASK_TOP*
G04 Layer:  PIN/SOLDERMASK_TOP*
G04 Layer:  DRC ERROR CLASS/SOLDERMASK_TOP*
G04 Layer:  BOARD GEOMETRY/DESIGN_OUTLINE*
G04 *
G04 Offset:    (0.000 0.000)*
G04 Mirror:    No*
G04 Mode:      Positive*
G04 Rotation:  0*
G04 FullContactRelief:  No*
G04 UndefLineWidth:     0.100*
G04 ================== end FILE IDENTIFICATION RECORD ====================*
%FSLAX25Y25*MOIN*%
%IR0*IPPOS*OFA0.00000B0.00000*MIA0B0*SFA1.00000B1.00000*%
%ADD12C,.086614*%
%ADD10R,.03937X.086614*%
%ADD11R,.11811X.047244*%
%ADD13C,.003937*%
G75*
%LPD*%
G75*
G54D10*
X34913Y41500D03*
Y56500D03*
X36913Y196000D03*
Y211000D03*
X49087Y41500D03*
Y56500D03*
X51087Y196000D03*
Y211000D03*
X54913Y104000D03*
Y150000D03*
X69087Y104000D03*
Y150000D03*
X93913D03*
X108087D03*
X108913Y196000D03*
Y211000D03*
X114913Y41500D03*
Y56500D03*
X129087Y41500D03*
Y56500D03*
X123087Y196000D03*
Y211000D03*
X129913Y105000D03*
Y150000D03*
X134913Y196000D03*
X144087Y105000D03*
Y150000D03*
X149087Y196000D03*
G54D11*
X32000Y71539D03*
Y79020D03*
Y86500D03*
Y120039D03*
Y127520D03*
Y135000D03*
Y165039D03*
Y172520D03*
Y180000D03*
X49323Y71539D03*
Y79020D03*
Y86500D03*
Y127520D03*
Y120039D03*
Y135000D03*
Y165039D03*
Y172520D03*
Y180000D03*
X72000Y41539D03*
Y49020D03*
Y56500D03*
Y71539D03*
Y79020D03*
Y86500D03*
Y120039D03*
Y127520D03*
Y135000D03*
Y165039D03*
Y172520D03*
Y180000D03*
Y196039D03*
Y203520D03*
Y211000D03*
X89323Y41539D03*
Y49020D03*
Y56500D03*
Y71539D03*
Y79020D03*
Y86500D03*
Y127520D03*
Y120039D03*
Y135000D03*
Y165039D03*
Y172520D03*
Y180000D03*
Y203520D03*
Y196039D03*
Y211000D03*
X112000Y71539D03*
Y79020D03*
Y86500D03*
Y120039D03*
Y127520D03*
Y135000D03*
Y165039D03*
Y172520D03*
Y180000D03*
X129323Y71539D03*
Y79020D03*
Y86500D03*
Y127520D03*
Y120039D03*
Y135000D03*
Y165039D03*
Y172520D03*
Y180000D03*
G54D12*
X60000Y247000D03*
Y257000D03*
X70000Y247000D03*
Y257000D03*
X80000Y247000D03*
Y257000D03*
X90000Y247000D03*
Y257000D03*
X100000Y247000D03*
Y257000D03*
G54D13*
G01X1000Y0D02*
Y276000D01*
X159000D01*
Y0D01*
X1000D01*
M02*
