G04 ================== begin FILE IDENTIFICATION RECORD ==================*
G04 Layout Name:  Pictograma.brd*
G04 Film Name:    Camada_Contorno_Placas*
G04 File Format:  Gerber RS274X*
G04 File Origin:  Cadence Allegro 17.2-S038*
G04 Origin Date:  Sun Feb 09 18:57:56 2020*
G04 *
G04 Layer:  USER PART NUMBER/SILKSCREEN_TOP*
G04 Layer:  TOLERANCE/SILKSCREEN_TOP*
G04 Layer:  REF DES/SILKSCREEN_TOP*
G04 Layer:  PACKAGE GEOMETRY/SILKSCREEN_TOP*
G04 Layer:  DEVICE TYPE/SILKSCREEN_TOP*
G04 Layer:  COMPONENT VALUE/SILKSCREEN_TOP*
G04 Layer:  BOARD GEOMETRY/SILKSCREEN_TOP*
G04 Layer:  BOARD GEOMETRY/DESIGN_OUTLINE*
G04 *
G04 Offset:    (0.000 0.000)*
G04 Mirror:    No*
G04 Mode:      Positive*
G04 Rotation:  0*
G04 FullContactRelief:  No*
G04 UndefLineWidth:     0.100*
G04 ================== end FILE IDENTIFICATION RECORD ====================*
%FSLAX25Y25*MOMM*%
%IR0*IPPOS*OFA0.00000B0.00000*MIA0B0*SFA1.00000B1.00000*%
%ADD10C,.1*%
G75*
%LPD*%
G75*
G54D10*
G01X25400Y0D02*
Y7010400D01*
X4038600D01*
Y0D01*
X25400D01*
G01X762800Y1707100D02*
X1302800D01*
Y2307100D01*
X762800D01*
Y1707100D01*
G01Y2939000D02*
X1302800D01*
Y3539000D01*
X762800D01*
Y2939000D01*
G01Y4082000D02*
X1302800D01*
Y4682000D01*
X762800D01*
Y4082000D01*
G01X966800Y991600D02*
X1166800D01*
Y1116600D01*
X966800D01*
Y991600D01*
G01X915900Y1205100D02*
Y1332100D01*
X956100D01*
X969000Y1325700D01*
X977000Y1317300D01*
X980200Y1300300D01*
X977000Y1283400D01*
X967400Y1272800D01*
X956100Y1266500D01*
X915900D01*
G01X956100D02*
X980200Y1205100D01*
G01X1077500D02*
Y1332100D01*
X1058200Y1306700D01*
G01Y1205100D02*
X1096800D01*
G01X1171700Y1230500D02*
X1181300Y1215700D01*
X1194200Y1207200D01*
X1208700Y1205100D01*
X1221500Y1207200D01*
X1234400Y1217800D01*
X1242400Y1230500D01*
X1244000Y1243200D01*
X1240800Y1258000D01*
X1229600Y1268600D01*
X1218300Y1272800D01*
X1203800D01*
G01X1218300D02*
X1228000Y1279200D01*
X1236000Y1289800D01*
X1239200Y1302500D01*
X1236000Y1315200D01*
X1228000Y1325700D01*
X1213500Y1332100D01*
X1199000Y1330000D01*
X1184500Y1321500D01*
G01X966800Y1372600D02*
X1166800D01*
Y1497600D01*
X966800D01*
Y1372600D01*
G01X915900Y1586100D02*
Y1713100D01*
X956100D01*
X969000Y1706700D01*
X977000Y1698300D01*
X980200Y1681300D01*
X977000Y1664400D01*
X967400Y1653800D01*
X956100Y1647500D01*
X915900D01*
G01X956100D02*
X980200Y1586100D01*
G01X1077500D02*
Y1713100D01*
X1058200Y1687700D01*
G01Y1586100D02*
X1096800D01*
G01X1207000D02*
Y1713100D01*
X1187700Y1687700D01*
G01Y1586100D02*
X1226300D01*
G01X912400Y2451600D02*
Y2324600D01*
X976700D01*
G01X1074000D02*
X1085300Y2326700D01*
X1098200Y2333100D01*
X1106200Y2343600D01*
X1109400Y2358500D01*
X1106200Y2373300D01*
X1096600Y2386000D01*
X1082100Y2392300D01*
X1066000D01*
X1056400Y2396600D01*
X1048300Y2407100D01*
X1045100Y2422000D01*
X1049900Y2436800D01*
X1061200Y2447400D01*
X1074000Y2451600D01*
X1086900Y2447400D01*
X1098200Y2436800D01*
X1103000Y2422000D01*
X1099800Y2407100D01*
X1091700Y2396600D01*
X1082100Y2392300D01*
X1066000D01*
X1051500Y2386000D01*
X1041900Y2373300D01*
X1038700Y2358500D01*
X1041900Y2343600D01*
X1049900Y2333100D01*
X1062800Y2326700D01*
X1074000Y2324600D01*
G01X912400Y3683500D02*
Y3556500D01*
X976700D01*
G01X1038700Y3575500D02*
X1048300Y3565000D01*
X1059600Y3558600D01*
X1074000Y3556500D01*
X1088500Y3560700D01*
X1099800Y3569200D01*
X1107800Y3584000D01*
X1109400Y3600900D01*
X1106200Y3617900D01*
X1098200Y3628500D01*
X1086900Y3636900D01*
X1075700Y3639000D01*
X1064400Y3636900D01*
X1049900Y3628500D01*
X1054700Y3683500D01*
X1098200D01*
G01X912400Y4826500D02*
Y4699500D01*
X976700D01*
G01X1043500Y4805300D02*
X1053100Y4818000D01*
X1064400Y4824400D01*
X1077300Y4826500D01*
X1093400Y4822300D01*
X1104600Y4811700D01*
X1107800Y4799000D01*
X1106200Y4786300D01*
X1099800Y4775700D01*
X1067600Y4754500D01*
X1053100Y4739700D01*
X1043500Y4718500D01*
X1040300Y4699500D01*
X1107800D01*
G01X1032100Y5080000D02*
Y5207000D01*
X1072300D01*
X1085200Y5200600D01*
X1093200Y5192200D01*
X1096400Y5175200D01*
X1093200Y5158300D01*
X1083600Y5147700D01*
X1072300Y5141400D01*
X1032100D01*
G01X1072300D02*
X1096400Y5080000D01*
G01X1158400Y5105400D02*
X1168000Y5090600D01*
X1180900Y5082100D01*
X1195400Y5080000D01*
X1208200Y5082100D01*
X1221100Y5092700D01*
X1229100Y5105400D01*
X1230700Y5118100D01*
X1227500Y5132900D01*
X1216300Y5143500D01*
X1205000Y5147700D01*
X1190500D01*
G01X1205000D02*
X1214700Y5154100D01*
X1222700Y5164700D01*
X1225900Y5177400D01*
X1222700Y5190100D01*
X1214700Y5200600D01*
X1200200Y5207000D01*
X1185700Y5204900D01*
X1171200Y5196400D01*
G01X1017600Y4915900D02*
X1217600D01*
Y5040900D01*
X1017600D01*
Y4915900D01*
G01Y5296900D02*
X1217600D01*
Y5421900D01*
X1017600D01*
Y5296900D01*
G01X1032100Y5524500D02*
Y5651500D01*
X1072300D01*
X1085200Y5645100D01*
X1093200Y5636700D01*
X1096400Y5619700D01*
X1093200Y5602800D01*
X1083600Y5592200D01*
X1072300Y5585900D01*
X1032100D01*
G01X1072300D02*
X1096400Y5524500D01*
G01X1193700D02*
Y5651500D01*
X1174400Y5626100D01*
G01Y5524500D02*
X1213000D01*
G01X1016000Y6845800D02*
Y5955800D01*
X3048000D01*
Y6845800D01*
X1016000D01*
G01X1474800Y2579100D02*
X1674800D01*
Y2704100D01*
X1474800D01*
Y2579100D01*
G01X1487400Y2792600D02*
Y2919600D01*
X1527600D01*
X1540500Y2913200D01*
X1548500Y2904800D01*
X1551700Y2887800D01*
X1548500Y2870900D01*
X1538900Y2860300D01*
X1527600Y2854000D01*
X1487400D01*
G01X1527600D02*
X1551700Y2792600D01*
G01X1621700Y2807400D02*
X1633000Y2796800D01*
X1645800Y2792600D01*
X1658700Y2796800D01*
X1670000Y2809500D01*
X1678000Y2828600D01*
X1681200Y2847600D01*
Y2870900D01*
X1678000Y2890000D01*
X1670000Y2906900D01*
X1660300Y2915400D01*
X1649000Y2919600D01*
X1636200Y2915400D01*
X1626500Y2906900D01*
X1620100Y2894200D01*
X1616900Y2877300D01*
X1620100Y2862500D01*
X1628100Y2847600D01*
X1637800Y2839200D01*
X1649000Y2837000D01*
X1661900Y2841300D01*
X1671600Y2851900D01*
X1681200Y2870900D01*
G01X1487400Y3961000D02*
Y4088000D01*
X1527600D01*
X1540500Y4081600D01*
X1548500Y4073200D01*
X1551700Y4056200D01*
X1548500Y4039300D01*
X1538900Y4028700D01*
X1527600Y4022400D01*
X1487400D01*
G01X1527600D02*
X1551700Y3961000D01*
G01X1618500Y4013900D02*
X1629700Y4028700D01*
X1639400Y4037200D01*
X1652300Y4041400D01*
X1663500Y4037200D01*
X1671600Y4028700D01*
X1678000Y4016000D01*
X1679600Y4001200D01*
X1678000Y3988500D01*
X1671600Y3975800D01*
X1661900Y3965200D01*
X1650700Y3961000D01*
X1637800Y3965200D01*
X1626500Y3977900D01*
X1620100Y3997000D01*
X1618500Y4018100D01*
X1621700Y4045700D01*
X1626500Y4060500D01*
X1634600Y4075300D01*
X1645800Y4085900D01*
X1657100Y4088000D01*
X1668400Y4083800D01*
X1676400Y4073200D01*
G01X1474800Y3747500D02*
X1674800D01*
Y3872500D01*
X1474800D01*
Y3747500D01*
G01X1778800Y945100D02*
X2318800D01*
Y1545100D01*
X1778800D01*
Y945100D01*
G01Y1707100D02*
X2318800D01*
Y2307100D01*
X1778800D01*
Y1707100D01*
G01Y2939000D02*
X2318800D01*
Y3539000D01*
X1778800D01*
Y2939000D01*
G01Y4082000D02*
X2318800D01*
Y4682000D01*
X1778800D01*
Y4082000D01*
G01Y4869400D02*
X2318800D01*
Y5469400D01*
X1778800D01*
Y4869400D01*
G01X1928400Y1689600D02*
Y1562600D01*
X1992700D01*
G01X2090000D02*
Y1689600D01*
X2070700Y1664200D01*
G01Y1562600D02*
X2109300D01*
G01X2219500D02*
Y1689600D01*
X2200200Y1664200D01*
G01Y1562600D02*
X2238800D01*
G01X1928400Y2451600D02*
Y2324600D01*
X1992700D01*
G01X2062700Y2339400D02*
X2074000Y2328800D01*
X2086800Y2324600D01*
X2099700Y2328800D01*
X2111000Y2341500D01*
X2119000Y2360600D01*
X2122200Y2379600D01*
Y2402900D01*
X2119000Y2422000D01*
X2111000Y2438900D01*
X2101300Y2447400D01*
X2090000Y2451600D01*
X2077200Y2447400D01*
X2067500Y2438900D01*
X2061100Y2426200D01*
X2057900Y2409300D01*
X2061100Y2394500D01*
X2069100Y2379600D01*
X2078800Y2371200D01*
X2090000Y2369000D01*
X2102900Y2373300D01*
X2112600Y2383900D01*
X2122200Y2402900D01*
G01X1928400Y3683500D02*
Y3556500D01*
X1992700D01*
G01X2059500Y3609400D02*
X2070700Y3624200D01*
X2080400Y3632700D01*
X2093300Y3636900D01*
X2104500Y3632700D01*
X2112600Y3624200D01*
X2119000Y3611500D01*
X2120600Y3596700D01*
X2119000Y3584000D01*
X2112600Y3571300D01*
X2102900Y3560700D01*
X2091700Y3556500D01*
X2078800Y3560700D01*
X2067500Y3573400D01*
X2061100Y3592500D01*
X2059500Y3613600D01*
X2062700Y3641200D01*
X2067500Y3656000D01*
X2075600Y3670800D01*
X2086800Y3681400D01*
X2098100Y3683500D01*
X2109400Y3679300D01*
X2117400Y3668700D01*
G01X1928400Y4826500D02*
Y4699500D01*
X1992700D01*
G01X2054700Y4724900D02*
X2064300Y4710100D01*
X2077200Y4701600D01*
X2091700Y4699500D01*
X2104500Y4701600D01*
X2117400Y4712200D01*
X2125400Y4724900D01*
X2127000Y4737600D01*
X2123800Y4752400D01*
X2112600Y4763000D01*
X2101300Y4767200D01*
X2086800D01*
G01X2101300D02*
X2111000Y4773600D01*
X2119000Y4784200D01*
X2122200Y4796900D01*
X2119000Y4809600D01*
X2111000Y4820100D01*
X2096500Y4826500D01*
X2082000Y4824400D01*
X2067500Y4815900D01*
G01X1921100Y5651500D02*
Y5524500D01*
X1985400D01*
G01X2082700D02*
Y5651500D01*
X2063400Y5626100D01*
G01Y5524500D02*
X2102000D01*
G01X1988600Y6783900D02*
X1979000Y6790300D01*
X1967700Y6794500D01*
X1954900D01*
X1940400Y6788100D01*
X1929100Y6777600D01*
X1921100Y6764900D01*
X1914600Y6743700D01*
X1913000Y6724600D01*
X1916300Y6705600D01*
X1921100Y6692900D01*
X1930700Y6680200D01*
X1942000Y6671700D01*
X1953200Y6667500D01*
X1964500D01*
X1975800Y6671700D01*
X1985400Y6678100D01*
X1993500Y6686500D01*
G01X2045800Y6667500D02*
Y6794500D01*
X2119700Y6667500D01*
Y6794500D01*
G01X2212200Y6667500D02*
Y6794500D01*
X2192900Y6769100D01*
G01Y6667500D02*
X2231500D01*
G01X2478000Y3961000D02*
Y4088000D01*
X2518200D01*
X2531100Y4081600D01*
X2539100Y4073200D01*
X2542300Y4056200D01*
X2539100Y4039300D01*
X2529500Y4028700D01*
X2518200Y4022400D01*
X2478000D01*
G01X2518200D02*
X2542300Y3961000D01*
G01X2636400D02*
X2639600Y3988500D01*
X2644500Y4011800D01*
X2650900Y4033000D01*
X2659000Y4056200D01*
X2671800Y4088000D01*
X2607500D01*
G01X2465400Y3747500D02*
X2665400D01*
Y3872500D01*
X2465400D01*
Y3747500D01*
G01X2947900Y1205100D02*
Y1332100D01*
X2988100D01*
X3001000Y1325700D01*
X3009000Y1317300D01*
X3012200Y1300300D01*
X3009000Y1283400D01*
X2999400Y1272800D01*
X2988100Y1266500D01*
X2947900D01*
G01X2988100D02*
X3012200Y1205100D01*
G01X3109500D02*
Y1332100D01*
X3090200Y1306700D01*
G01Y1205100D02*
X3128800D01*
G01X3258400D02*
Y1332100D01*
X3198800Y1241100D01*
X3279300D01*
G01X2794800Y1707100D02*
X3334800D01*
Y2307100D01*
X2794800D01*
Y1707100D01*
G01X2947900Y1586100D02*
Y1713100D01*
X2988100D01*
X3001000Y1706700D01*
X3009000Y1698300D01*
X3012200Y1681300D01*
X3009000Y1664400D01*
X2999400Y1653800D01*
X2988100Y1647500D01*
X2947900D01*
G01X2988100D02*
X3012200Y1586100D01*
G01X3109500D02*
Y1713100D01*
X3090200Y1687700D01*
G01Y1586100D02*
X3128800D01*
G01X3208500Y1691900D02*
X3218100Y1704600D01*
X3229400Y1711000D01*
X3242300Y1713100D01*
X3258400Y1708900D01*
X3269600Y1698300D01*
X3272800Y1685600D01*
X3271200Y1672900D01*
X3264800Y1662300D01*
X3232600Y1641100D01*
X3218100Y1626300D01*
X3208500Y1605100D01*
X3205300Y1586100D01*
X3272800D01*
G01X2944400Y2451600D02*
Y2324600D01*
X3008700D01*
G01X3106000D02*
Y2451600D01*
X3086700Y2426200D01*
G01Y2324600D02*
X3125300D01*
G01X3235500Y2451600D02*
X3222700Y2447400D01*
X3213000Y2436800D01*
X3206600Y2424100D01*
X3201800Y2407100D01*
X3200200Y2388100D01*
X3201800Y2369000D01*
X3206600Y2352100D01*
X3213000Y2339400D01*
X3222700Y2328800D01*
X3235500Y2324600D01*
X3248400Y2328800D01*
X3258100Y2339400D01*
X3264500Y2352100D01*
X3269300Y2369000D01*
X3270900Y2388100D01*
X3269300Y2407100D01*
X3264500Y2424100D01*
X3258100Y2436800D01*
X3248400Y2447400D01*
X3235500Y2451600D01*
G01X2794800Y2939000D02*
X3334800D01*
Y3539000D01*
X2794800D01*
Y2939000D01*
G01X2944400Y3683500D02*
Y3556500D01*
X3008700D01*
G01X3102800D02*
X3106000Y3584000D01*
X3110900Y3607300D01*
X3117300Y3628500D01*
X3125400Y3651700D01*
X3138200Y3683500D01*
X3073900D01*
G01X2794800Y4082000D02*
X3334800D01*
Y4682000D01*
X2794800D01*
Y4082000D01*
G01X2944400Y4826500D02*
Y4699500D01*
X3008700D01*
G01X3125400D02*
Y4826500D01*
X3065800Y4735500D01*
X3146300D01*
G01X2859000Y5065900D02*
Y5192900D01*
X2899200D01*
X2912100Y5186500D01*
X2920100Y5178100D01*
X2923300Y5161100D01*
X2920100Y5144200D01*
X2910500Y5133600D01*
X2899200Y5127300D01*
X2859000D01*
G01X2899200D02*
X2923300Y5065900D01*
G01X3040000D02*
Y5192900D01*
X2980400Y5101900D01*
X3060900D01*
G01X2846400Y4915900D02*
X3046400D01*
Y5040900D01*
X2846400D01*
Y4915900D01*
G01Y5296900D02*
X3046400D01*
Y5421900D01*
X2846400D01*
Y5296900D01*
G01X2873600Y5524500D02*
Y5651500D01*
X2913800D01*
X2926700Y5645100D01*
X2934700Y5636700D01*
X2937900Y5619700D01*
X2934700Y5602800D01*
X2925100Y5592200D01*
X2913800Y5585900D01*
X2873600D01*
G01X2913800D02*
X2937900Y5524500D01*
G01X3004700Y5630300D02*
X3014300Y5643000D01*
X3025600Y5649400D01*
X3038500Y5651500D01*
X3054600Y5647300D01*
X3065800Y5636700D01*
X3069000Y5624000D01*
X3067400Y5611300D01*
X3061000Y5600700D01*
X3028800Y5579500D01*
X3014300Y5564700D01*
X3004700Y5543500D01*
X3001500Y5524500D01*
X3069000D01*
G01X2998800Y991600D02*
X3198800D01*
Y1116600D01*
X2998800D01*
Y991600D01*
G01Y1372600D02*
X3198800D01*
Y1497600D01*
X2998800D01*
Y1372600D01*
G01X3379800Y2604500D02*
X3579800D01*
Y2729500D01*
X3379800D01*
Y2604500D01*
G01X3392400Y2818000D02*
Y2945000D01*
X3432600D01*
X3445500Y2938600D01*
X3453500Y2930200D01*
X3456700Y2913200D01*
X3453500Y2896300D01*
X3443900Y2885700D01*
X3432600Y2879400D01*
X3392400D01*
G01X3432600D02*
X3456700Y2818000D01*
G01X3554000D02*
Y2945000D01*
X3534700Y2919600D01*
G01Y2818000D02*
X3573300D01*
G01X3683500Y2945000D02*
X3670700Y2940800D01*
X3661000Y2930200D01*
X3654600Y2917500D01*
X3649800Y2900500D01*
X3648200Y2881500D01*
X3649800Y2862400D01*
X3654600Y2845500D01*
X3661000Y2832800D01*
X3670700Y2822200D01*
X3683500Y2818000D01*
X3696400Y2822200D01*
X3706100Y2832800D01*
X3712500Y2845500D01*
X3717300Y2862400D01*
X3718900Y2881500D01*
X3717300Y2900500D01*
X3712500Y2917500D01*
X3706100Y2930200D01*
X3696400Y2940800D01*
X3683500Y2945000D01*
G01X3392400Y3961000D02*
Y4088000D01*
X3432600D01*
X3445500Y4081600D01*
X3453500Y4073200D01*
X3456700Y4056200D01*
X3453500Y4039300D01*
X3443900Y4028700D01*
X3432600Y4022400D01*
X3392400D01*
G01X3432600D02*
X3456700Y3961000D01*
G01X3554000D02*
X3565300Y3963100D01*
X3578200Y3969500D01*
X3586200Y3980000D01*
X3589400Y3994900D01*
X3586200Y4009700D01*
X3576600Y4022400D01*
X3562100Y4028700D01*
X3546000D01*
X3536400Y4033000D01*
X3528300Y4043500D01*
X3525100Y4058400D01*
X3529900Y4073200D01*
X3541200Y4083800D01*
X3554000Y4088000D01*
X3566900Y4083800D01*
X3578200Y4073200D01*
X3583000Y4058400D01*
X3579800Y4043500D01*
X3571700Y4033000D01*
X3562100Y4028700D01*
X3546000D01*
X3531500Y4022400D01*
X3521900Y4009700D01*
X3518700Y3994900D01*
X3521900Y3980000D01*
X3529900Y3969500D01*
X3542800Y3963100D01*
X3554000Y3961000D01*
G01X3379800Y3747500D02*
X3579800D01*
Y3872500D01*
X3379800D01*
Y3747500D01*
G01X3519400Y5129400D02*
Y5256400D01*
X3559600D01*
X3572500Y5250000D01*
X3580500Y5241600D01*
X3583700Y5224600D01*
X3580500Y5207700D01*
X3570900Y5197100D01*
X3559600Y5190800D01*
X3519400D01*
G01X3559600D02*
X3583700Y5129400D01*
G01X3645700Y5148400D02*
X3655300Y5137900D01*
X3666600Y5131500D01*
X3681000Y5129400D01*
X3695500Y5133600D01*
X3706800Y5142100D01*
X3714800Y5156900D01*
X3716400Y5173800D01*
X3713200Y5190800D01*
X3705200Y5201400D01*
X3693900Y5209800D01*
X3682700Y5211900D01*
X3671400Y5209800D01*
X3656900Y5201400D01*
X3661700Y5256400D01*
X3705200D01*
G01X3506800Y4915900D02*
X3706800D01*
Y5040900D01*
X3506800D01*
Y4915900D01*
M02*
